<mxfile host="65bd71144e">
    <diagram id="ASTWp4ZXTidoFe2xOwB_" name="1b">
        <mxGraphModel dx="1957" dy="569" grid="1" gridSize="10" guides="1" tooltips="1" connect="1" arrows="1" fold="1" page="1" pageScale="1" pageWidth="827" pageHeight="1169" math="0" shadow="0">
            <root>
                <mxCell id="0"/>
                <mxCell id="1" parent="0"/>
                <mxCell id="186" value="" style="childLayout=tableLayout;recursiveResize=0;shadow=0;fillColor=none;" parent="1" vertex="1">
                    <mxGeometry x="-110" y="310" width="630" height="737" as="geometry"/>
                </mxCell>
                <mxCell id="187" value="" style="shape=tableRow;horizontal=0;startSize=0;swimlaneHead=0;swimlaneBody=0;top=0;left=0;bottom=0;right=0;dropTarget=0;collapsible=0;recursiveResize=0;expand=0;fontStyle=0;fillColor=none;strokeColor=inherit;" parent="186" vertex="1">
                    <mxGeometry width="630" height="130" as="geometry"/>
                </mxCell>
                <mxCell id="188" value="利害關係人" style="connectable=0;recursiveResize=0;strokeColor=inherit;fillColor=none;align=center;whiteSpace=wrap;html=1;" parent="187" vertex="1">
                    <mxGeometry width="210" height="130" as="geometry">
                        <mxRectangle width="210" height="130" as="alternateBounds"/>
                    </mxGeometry>
                </mxCell>
                <mxCell id="189" value="目標" style="connectable=0;recursiveResize=0;strokeColor=inherit;fillColor=none;align=center;whiteSpace=wrap;html=1;" parent="187" vertex="1">
                    <mxGeometry x="210" width="210" height="130" as="geometry">
                        <mxRectangle width="210" height="130" as="alternateBounds"/>
                    </mxGeometry>
                </mxCell>
                <mxCell id="190" value="" style="connectable=0;recursiveResize=0;strokeColor=inherit;fillColor=none;align=center;whiteSpace=wrap;html=1;" parent="187" vertex="1">
                    <mxGeometry x="420" width="210" height="130" as="geometry">
                        <mxRectangle width="210" height="130" as="alternateBounds"/>
                    </mxGeometry>
                </mxCell>
                <mxCell id="191" style="shape=tableRow;horizontal=0;startSize=0;swimlaneHead=0;swimlaneBody=0;top=0;left=0;bottom=0;right=0;dropTarget=0;collapsible=0;recursiveResize=0;expand=0;fontStyle=0;fillColor=none;strokeColor=inherit;" parent="186" vertex="1">
                    <mxGeometry y="130" width="630" height="607" as="geometry"/>
                </mxCell>
                <mxCell id="192" value="" style="connectable=0;recursiveResize=0;strokeColor=inherit;fillColor=none;align=left;whiteSpace=wrap;html=1;" parent="191" vertex="1">
                    <mxGeometry width="210" height="607" as="geometry">
                        <mxRectangle width="210" height="607" as="alternateBounds"/>
                    </mxGeometry>
                </mxCell>
                <mxCell id="193" value="&lt;div&gt;&lt;br&gt;&lt;/div&gt;" style="connectable=0;recursiveResize=0;strokeColor=inherit;fillColor=none;align=left;whiteSpace=wrap;html=1;" parent="191" vertex="1">
                    <mxGeometry x="210" width="210" height="607" as="geometry">
                        <mxRectangle width="210" height="607" as="alternateBounds"/>
                    </mxGeometry>
                </mxCell>
                <mxCell id="194" value="Value 6" style="connectable=0;recursiveResize=0;strokeColor=inherit;fillColor=none;align=center;whiteSpace=wrap;html=1;" parent="191" vertex="1">
                    <mxGeometry x="420" width="210" height="607" as="geometry">
                        <mxRectangle width="210" height="607" as="alternateBounds"/>
                    </mxGeometry>
                </mxCell>
                <mxCell id="202" value="1.阿力孤代銷公司" style="shape=ext;double=1;rounded=1;whiteSpace=wrap;html=1;align=left;" parent="1" vertex="1">
                    <mxGeometry x="-110" y="440" width="210" height="100" as="geometry"/>
                </mxCell>
                <mxCell id="203" value="2.綻幣軟體設計公司" style="shape=ext;double=1;rounded=1;whiteSpace=wrap;html=1;align=left;" parent="1" vertex="1">
                    <mxGeometry x="-110" y="544" width="210" height="76" as="geometry"/>
                </mxCell>
                <mxCell id="204" value="3.買家" style="shape=ext;double=1;rounded=1;whiteSpace=wrap;html=1;align=left;" parent="1" vertex="1">
                    <mxGeometry x="-110" y="624" width="210" height="86" as="geometry"/>
                </mxCell>
                <mxCell id="226" style="edgeStyle=none;html=1;" edge="1" parent="1" source="206" target="191">
                    <mxGeometry relative="1" as="geometry"/>
                </mxCell>
                <mxCell id="206" value="6.代銷人員" style="shape=ext;double=1;rounded=1;whiteSpace=wrap;html=1;align=left;" parent="1" vertex="1">
                    <mxGeometry x="-110" y="790" width="210" height="80" as="geometry"/>
                </mxCell>
                <mxCell id="207" value="5.代銷管理者" style="shape=ext;double=1;rounded=1;whiteSpace=wrap;html=1;align=left;" parent="1" vertex="1">
                    <mxGeometry x="-110" y="710" width="210" height="80" as="geometry"/>
                </mxCell>
                <mxCell id="208" value="7.Line bot" style="shape=ext;double=1;rounded=1;whiteSpace=wrap;html=1;align=left;" parent="1" vertex="1">
                    <mxGeometry x="-110" y="870" width="210" height="60" as="geometry"/>
                </mxCell>
                <mxCell id="210" value="8.開發建商" style="shape=ext;double=1;rounded=1;whiteSpace=wrap;html=1;align=left;" parent="1" vertex="1">
                    <mxGeometry x="-110" y="1000" width="210" height="40" as="geometry"/>
                </mxCell>
                <mxCell id="211" value="&lt;ul&gt;&lt;li style=&quot;text-align: left;&quot;&gt;在後台管理軟體正常運作&lt;/li&gt;&lt;li style=&quot;text-align: left;&quot;&gt;管理前台代銷人員&lt;/li&gt;&lt;li style=&quot;text-align: left;&quot;&gt;向軟體公司學習使用方法以及Debug&lt;/li&gt;&lt;/ul&gt;" style="shape=ext;double=1;rounded=1;whiteSpace=wrap;html=1;" parent="1" vertex="1">
                    <mxGeometry x="100" y="714" width="210" height="80" as="geometry"/>
                </mxCell>
                <mxCell id="215" style="edgeStyle=none;html=1;" parent="1" target="191" edge="1">
                    <mxGeometry relative="1" as="geometry">
                        <mxPoint x="207.9930966469426" y="440" as="sourcePoint"/>
                    </mxGeometry>
                </mxCell>
                <mxCell id="213" value="&lt;ul&gt;&lt;li&gt;為了更方便的買房&lt;/li&gt;&lt;/ul&gt;" style="shape=ext;double=1;rounded=1;whiteSpace=wrap;html=1;align=left;" parent="1" vertex="1">
                    <mxGeometry x="100" y="624" width="210" height="90" as="geometry"/>
                </mxCell>
                <mxCell id="214" value="&lt;ul&gt;&lt;li&gt;設計一個能增加買家看房之效率的軟體&lt;/li&gt;&lt;/ul&gt;" style="shape=ext;double=1;rounded=1;whiteSpace=wrap;html=1;align=left;" parent="1" vertex="1">
                    <mxGeometry x="100" y="544" width="210" height="80" as="geometry"/>
                </mxCell>
                <mxCell id="223" value="&lt;ul&gt;&lt;li&gt;確保代銷人員能夠有計畫的接待看房&lt;/li&gt;&lt;/ul&gt;" style="shape=ext;double=1;rounded=1;whiteSpace=wrap;html=1;align=left;" parent="1" vertex="1">
                    <mxGeometry x="100" y="440" width="210" height="100" as="geometry"/>
                </mxCell>
                <mxCell id="224" value="&lt;ul&gt;&lt;li&gt;在前台確保買家在買賣或觀看房子的品質&lt;/li&gt;&lt;li&gt;區分預約和現場觀看型買家的接待方式&lt;/li&gt;&lt;/ul&gt;" style="shape=ext;double=1;rounded=1;whiteSpace=wrap;html=1;" vertex="1" parent="1">
                    <mxGeometry x="100" y="794" width="210" height="80" as="geometry"/>
                </mxCell>
            </root>
        </mxGraphModel>
    </diagram>
    <diagram id="YNBZmlXG5lnyesX3e9GX" name="1d">
        <mxGraphModel dx="1102" dy="787" grid="1" gridSize="10" guides="1" tooltips="1" connect="1" arrows="1" fold="1" page="1" pageScale="1" pageWidth="827" pageHeight="1169" math="0" shadow="0">
            <root>
                <mxCell id="0"/>
                <mxCell id="1" parent="0"/>
            </root>
        </mxGraphModel>
    </diagram>
    <diagram id="AscKv5OJ8TlSJ3xA4gjY" name="2b">
        <mxGraphModel dx="1102" dy="787" grid="1" gridSize="10" guides="1" tooltips="1" connect="1" arrows="1" fold="1" page="1" pageScale="1" pageWidth="827" pageHeight="1169" math="0" shadow="0">
            <root>
                <mxCell id="0"/>
                <mxCell id="1" parent="0"/>
            </root>
        </mxGraphModel>
    </diagram>
    <diagram id="jKp8lnFoO_ODNvvGuu6S" name="2d">
        <mxGraphModel dx="1102" dy="787" grid="1" gridSize="10" guides="1" tooltips="1" connect="1" arrows="1" fold="1" page="1" pageScale="1" pageWidth="827" pageHeight="1169" math="0" shadow="0">
            <root>
                <mxCell id="0"/>
                <mxCell id="1" parent="0"/>
            </root>
        </mxGraphModel>
    </diagram>
</mxfile>